<?xml version="1.0" encoding="utf-8"?>
<!-- Generator: Adobe Illustrator 27.3.1, SVG Export Plug-In . SVG Version: 6.00 Build 0)  -->
<svg version="1.1" id="new_logo_xA0_Image_00000089535676772637434850000001388292421581919888_"
	 xmlns="http://www.w3.org/2000/svg" xmlns:xlink="http://www.w3.org/1999/xlink" x="0px" y="0px" viewBox="0 0 1293 1617"
	 style="enable-background:new 0 0 1293 1617;" xml:space="preserve">
<style type="text/css">
	.st0{fill:#010101;}
</style>
<g>
	<g>
		<path class="st0" d="M1219.8,125.58c2.58,1.71,4.51,3.26,6.67,4.36c12.88,6.54,23.9,15.44,32.28,27.14
			c4.79,6.69,8.09,14.42,12.47,21.43c2.69,4.3,3.16,9.34,5.14,13.57c3.4,7.27,1.21,15.19,4.39,22.36c1.15,2.59-0.64,6.37-0.64,9.61
			c-0.05,281.32-0.07,562.64-0.05,843.96c0.01,67.16,0.14,134.32,0.34,201.48c0.01,4.77,1.43,9.55,1.38,14.31
			c-0.03,2.54-2.36,4.99-2.68,7.6c-1.06,8.7-4.5,16.54-7.47,24.67c-5.19,14.22-14.32,25.4-24.96,35.45
			c-5.87,5.55-12.34,11.18-19.59,14.39c-11.42,5.06-23.61,8.56-35.71,11.81c-4.62,1.24-9.92-0.12-14.9-0.12
			c-155.66,0.02-311.32,0.05-466.97,0.09c-165.49,0.05-330.97,0.11-496.46,0.18c-17.67,0.01-35.33,0.1-53,0.14
			c-8.32,0.02-16.65,0.16-24.97,0c-10.73-0.21-21.46-0.53-32.17-1.11c-2.84-0.15-5.65-1.28-8.41-2.17
			c-11.71-3.78-23.47-7.39-33.28-15.37c-5.93-4.83-12.59-8.86-18.06-14.15c-4.41-4.27-7.97-9.63-11.1-14.98
			c-3.74-6.39-7.49-13.02-9.66-20.04c-2.65-8.57-5.18-17.64-5.18-26.5c-0.27-277.82-0.22-555.64-0.25-833.45
			c-0.01-75.33-0.08-150.66-0.23-225.99c-0.01-3.83-1.48-7.65-1.51-11.49c-0.02-2.81,1.1-5.66,1.87-8.45
			c3.42-12.42,6.57-25,13.94-35.84c4.54-6.68,10.15-12.67,14.43-19.5c5.43-8.69,15.93-11.2,21.94-19.14
			c1.26-1.66,5.01-1.36,7.56-2.14c6.08-1.84,12.05-4.18,18.22-5.61c34.31-7.98,69.16-3.37,103.72-3.43
			c282.65-0.52,565.3-0.37,847.95-0.41c44.33-0.01,88.66-0.31,132.98,0.21c12.62,0.15,25.42,1.56,37.27,7.04
			C1216.52,126.15,1218.51,125.58,1219.8,125.58z M648.51,997.31c0,0.06,0,0.11,0,0.17c2,0,4,0,5.99,0
			c69.83-0.02,139.66-0.1,209.49-0.05c126.83,0.09,253.66,0.26,380.48,0.38c11.7,0.01,15.53-3.87,15.53-15.51
			c-0.05-249.16-0.22-498.32,0.07-747.48c0.02-18.96-4.62-36.41-11.3-53.52c-3.51-8.99-9.57-17.23-18.22-22
			c-6.41-3.54-10.87-10.7-19.21-10.7c-4.46-6.88-12.62-4.89-18.87-7.31c-6.61-2.56-14.5-2.38-21.84-2.41
			c-46.16-0.17-92.33-0.06-138.5-0.05c-303.16,0.04-606.32,0.06-909.48,0.24c-7.23,0-14.5,1.65-21.69,2.9
			c-17.89,3.12-32.3,12.23-44.33,25.7c-8.22,9.2-13.16,20.19-16.32,31.62c-2.53,9.15-3.02,19.09-3.03,28.68
			c-0.2,251.49-0.22,502.99-0.27,754.48c0,1.67-0.05,3.34,0.08,5c0.42,5.45,3.36,9.99,9.92,9.94c17.99-0.13,35.99,0.12,53.98,0.12
			c180.83-0.05,361.66-0.12,542.49-0.19C645.17,997.31,646.84,997.31,648.51,997.31z M89.55,1061.07c0,2.23,0,3.86,0,5.49
			c-0.02,60.79-0.05,121.58-0.06,182.37c0,2.82,0.01,5.65,0.12,8.47c0.15,3.97,2.11,6.02,6.26,5.93c20.4-0.48,40.8-0.71,61.19-1.4
			c11.88-0.4,23.24-3.59,33.36-9.81c5.94-3.65,11.93-7.9,16.31-13.19c4.22-5.1,7.65-11.58,9.18-17.99c1.9-7.98,2.21-16.54,1.93-24.8
			c-0.52-15.21-6.2-28.45-17.76-38.77c-3.65-3.25-7.39-6.4-9.9-8.58c4.59-7.96,8.96-15.04,12.85-22.38
			c5.19-9.8,3.57-20.33,1.89-30.53c-2.87-17.39-15.27-27.9-29.65-31.82c-16.89-4.6-34.36-3.51-51.63-3.99
			c-8.56-0.24-17.16,0.66-25.74,0.99C95.3,1061.15,92.69,1061.07,89.55,1061.07z M1045.13,1162.63c-1.69-13.2-2.88-26.48-5.21-39.56
			c-2.39-13.43-7.51-25.95-16.17-36.76c-11.01-13.74-25.18-22.37-42.45-25.59c-8.8-1.64-17.78-3.73-26.61-3.46
			c-9.22,0.28-18.4,1.49-27.51,5.34c-18.22,7.7-30.18,21.21-38.94,37.81c-4.84,9.18-7.97,19.4-10.79,29.46
			c-2.32,8.28-3.74,16.96-4.31,25.54c-1.5,22.57,3.27,44.17,11.93,64.93c4.98,11.95,11.93,22.45,22.19,30.82
			c8.39,6.84,18.59,9.36,28.11,13.49c3.45,1.5,7.6,2.17,11.36,1.97c9.19-0.48,18.49-0.97,27.47-2.8c8.31-1.69,16.43-4.7,24.32-7.89
			c11.09-4.47,17.89-14.06,25.08-22.96c2.58-3.2,4.51-6.98,6.37-10.69c1.24-2.48,1.59-5.39,2.78-7.9c1.27-2.67,3.67-4.9,4.54-7.64
			C1041.81,1192.46,1044.63,1177.87,1045.13,1162.63z M853.91,1155.64c-1.2-12.01-1.12-22.07-3.42-31.57
			c-2.9-11.98-7.99-23.24-15.9-33.18c-9.72-12.21-21.92-21.16-36.51-25.33c-12.09-3.46-25.05-4.56-37.69-5.19
			c-13.92-0.69-27.93,0.38-41.9,0.61c-7.31,0.12-10.57,3.21-10.51,10.49c0.33,41.27,0.85,82.54,1,123.81
			c0.06,17.91-0.9,35.83-0.87,53.75c0.02,10.58,3.64,15.47,11.2,14.9c9.85-0.75,19.71-1.53,29.58-1.81
			c13.42-0.39,26.66-0.57,39.99-3.7c13.06-3.07,23.94-9.24,34.37-16.93c9.41-6.94,13.78-17.43,18.8-27.43
			c4.05-8.06,6.29-16.53,7.18-25.59C850.36,1176.82,852.49,1165.28,853.91,1155.64z M358.58,1146.15c-0.6,0-1.21,0-1.81,0
			c-0.58-3.37-1.62-6.74-1.67-10.12c-0.16-11.32,0.2-22.65,0.04-33.97c-0.16-10.93-0.55-21.86-1.19-32.77
			c-0.23-3.9-1.7-7.27-6.82-7.36c-7.9-0.13-15.81-0.57-23.7-1.09c-3.67-0.24-4.48,1.38-4.48,4.7c0.05,61.49-0.01,122.99,0.1,184.48
			c0.01,3.47,0.94,7.11,2.25,10.34c0.65,1.6,3.14,3.46,4.8,3.47c7.9,0.06,15.83-0.24,23.69-1.03c1.55-0.16,3.8-2.95,4.03-4.74
			c0.63-4.99,0.3-10.03,0.95-15.12c0.72-5.62-0.48-11.47-0.68-17.23c-0.13-3.65-0.64-7.48,0.2-10.95
			c3.2-13.13,11.38-23.47,19.56-33.8c0.56,0.4,0.89,0.53,1.04,0.77c13.04,21.12,26.06,42.26,39.1,63.38
			c2.49,4.03,4.8,8.21,7.68,11.95c2.58,3.35,5.46,6.31,10.57,6.17c11.23-0.32,22.48-0.1,35.35-0.1c-2.95-5.31-5.16-9.48-7.55-13.53
			c-3.13-5.32-6.42-10.55-9.63-15.82c-6.79-11.18-13.5-22.4-20.36-33.53c-9.11-14.79-18.38-29.47-27.46-44.28
			c-2.63-4.29-2.57-8.81,0.28-13.09c4.64-6.98,9.36-13.91,14-20.89c9.51-14.33,19.04-28.64,28.45-43.04
			c3.53-5.41,6.73-11.03,10.75-17.65c-3.06-0.23-4.62-0.45-6.17-0.44c-8.33,0.01-16.68,0.42-24.99,0.02
			c-6.46-0.31-10.64,2.39-14.01,7.52c-9.16,13.93-18.43,27.8-27.74,41.63C375.03,1122.11,366.78,1134.11,358.58,1146.15z
			 M480.74,1162.03c-0.19,0-0.38,0-0.57,0c0,29.82-0.01,59.64,0,89.45c0,8.79,3.39,12.23,12,12.23c16.16,0,32.32,0.02,48.47-0.03
			c18.31-0.06,36.62-0.21,54.93-0.29c3.32-0.01,5.29-1.37,5.46-4.88c0.3-6.54,0.78-13.07,0.92-19.62c0.18-8.02-1.93-10.17-9.8-10.15
			c-21.98,0.05-43.95,0.21-65.92,0.23c-4.33,0-7.86-1.86-8.18-6.59c-0.86-12.71-1.8-25.43-1.91-38.15
			c-0.08-8.59,4.49-12.2,13.25-12.19c11.99,0,24.03,0.58,35.97-0.18c10.02-0.64,14.6-2.8,13.66-13.33
			c-0.36-4.08-0.91-8.16-0.9-12.24c0.02-6.62-0.97-7.87-7.57-7.9c-13.49-0.06-26.99-0.01-40.48-0.16
			c-10.58-0.12-13.31-3.06-13.07-13.77c0.15-6.59,0.5-13.17,0.62-19.76c0.14-7.63,0.99-8.61,8.25-8.62
			c20.82-0.02,41.64,0.28,62.45-0.13c11.81-0.23,15.07-4.61,14.64-14.41c-0.23-5.15-0.33-10.34,0.01-15.49
			c0.28-4.33-1.46-5.25-5.47-5.22c-35.48,0.2-70.96,0.29-106.45,0.17c-4.31-0.02-7.21,1.41-8.73,5.07
			c-1.03,2.47-1.52,5.33-1.53,8.03C480.7,1103.39,480.74,1132.71,480.74,1162.03z M1152.54,1057.55c-4.72,0.48-9.47,0.79-14.16,1.46
			c-17.25,2.48-31.66,10.7-43.79,22.84c-4.33,4.34-7.93,9.55-11.14,14.81c-4.53,7.41-8.92,15-12.37,22.95
			c-2.49,5.72-4.64,11.57-4.47,18.44c0.18,7.42-3.37,14.9-3.36,22.35c0.02,10.68,1.38,21.43,3,32.02c0.98,6.4,3.02,12.78,5.54,18.76
			c3.16,7.49,6.66,14.99,11.15,21.72c14.02,21.04,33.93,32.2,59.3,32.99c6.75,0.21,13.52-0.67,20.28-0.77
			c9.04-0.13,17.41-2.67,25.45-6.52c5.24-2.51,10.36-5.26,15.54-7.91c4.36-2.23,8.35-9.1,6.77-12.26
			c-3.91-7.85-8.12-15.54-12.12-23.35c-1.4-2.74-2.92-2.61-5.04-0.82c-3.17,2.69-6.32,5.44-9.74,7.77
			c-20.76,14.14-43.83,13.77-61.74-3.15c-2.88-2.72-6.79-5.17-8.09-8.57c-2.52-6.56-7.79-11.85-8.26-19.42
			c-0.31-5.06-3.04-10.02-3.1-15.04c-0.17-13.25-1.22-26.5,3.64-39.54c4.78-12.81,10.07-24.76,20.67-34.07
			c10.3-9.05,22.24-10.44,34.79-8.87c9.14,1.15,18.09,3.81,27.15,5.63c4,0.8,7.08-0.17,8.67-4.64c1.39-3.9,3.33-7.66,5.44-11.24
			c5.36-9.12,2.84-13.95-6.12-17.43C1182.41,1060.26,1167.72,1057.63,1152.54,1057.55z M246.97,1060.39c0,3.35,0,5.48,0,7.62
			c-0.01,45.5-0.03,90.99-0.02,136.49c0,16.33,0.06,32.66,0.14,48.99c0.02,4.65,3.63,9.55,7.37,9.62
			c9.09,0.15,18.18,0.05,27.61,0.05c0-4.26,0-7.9,0-11.54c0-52.66,0-105.32,0-157.98c0-7.5,0.08-15-0.03-22.5
			c-0.06-3.88-1.01-8.43-5.16-8.93C267.25,1061.02,257.49,1060.95,246.97,1060.39z"/>
		<path class="st0" d="M785.71,398.07c-8.92-1.68-18.16-2.96-27.15-5.25c-10.2-2.59-20.25-5.86-30.23-9.27
			c-5.54-1.89-9.76-5.75-12.34-11.19c2.16-3.75,5.79-4.26,9.42-5.8c6.4-2.72,12.97-2.21,19.33-3.68c2.52-0.58,5.35,0.31,8.01,0.1
			c6.84-0.54,13.65-1.58,20.5-1.93c16.15-0.83,32.33-1.19,48.47-2.19c2.93-0.18,5.66-3.31,8.61-3.57c2.52-0.22,5.18,2.43,7.85,2.58
			c9.74,0.56,19.55,0.19,29.26,1.03c3.93,0.34,7.67,2.91,11.52,4.48c-1.57,3.29-3.11,6.04-4.24,8.95
			c-3.13,8.06-10.51,10.65-17.5,13.55c-4.97,2.06-10.2,3.55-15.38,5.05c-6.54,1.89-13.4,2.95-19.65,5.52
			c-3.26,1.34-6.54,4.68-8,7.93c-2.25,5.03-4.32,10.85-3.95,16.16c0.5,7.06,0.95,14.26,6.08,20.74c15.59,19.66,30.33,40,45.36,60.1
			c2.45,3.27,4.65,6.73,7.08,10.01c5.53,7.46,7.99,8.07,16.61,3.69c4.5-2.29,8.62-5.35,13.18-7.47c4.05-1.88,8.46-3,12.74-4.37
			c10.34-3.31,20.58-7.06,31.1-9.67c5.98-1.48,12.42-1.06,18.65-1.54c3.41-0.27,6.84-1.09,10.21-0.88
			c12.12,0.75,24.22,1.9,36.34,2.72c1.41,0.1,2.91-0.95,4.85-1.64c2.58,2.42,5.44,4.73,10.32,3.12c2.04-0.68,5.14,2.06,7.83,3.06
			c7.42,2.76,14.7,6.42,22.37,7.75c4.53,0.79,7.38,3.04,10.78,5.15c0.88,0.55,2.13,0.54,3.23,0.69c0.82,0.11,2.17-0.24,2.41,0.15
			c4.34,7.07,13.04,8.03,18.67,13.32c1.06,1,3.43,0.61,4.63,1.6c3.58,2.68,7.16,5.36,11.76,8.8c1.66,5.91,7.34,11.02,12.16,11.25
			c3.52,5.05,6.2,9.32,9.31,13.26c5.77,7.32,11.41,14.7,16.06,22.83c3.27,5.73,9.13,10.74,10.21,16.73
			c0.99,5.48,3.7,10.03,4.86,15.24c2.04,9.14,3.75,18.54,7.39,27.06c2.1,4.92,1.48,9.62,2.6,14.29c0.55,2.28,2.06,4.32,2.67,5.54
			c-0.38,3.67-0.89,6.79-0.98,9.93c-0.18,6.33-0.16,12.66-0.15,18.99c0,1.87,0.6,3.8,0.31,5.61c-0.55,3.42-1.62,6.75-2.32,10.15
			c-0.32,1.56-0.2,3.21-0.41,4.81c-0.25,1.88-0.59,3.74-0.98,5.6c-0.38,1.86-0.85,3.71-1.31,5.55
			c-5.8,23.36-15.14,45.16-28.85,65.02c-2.41,3.49-4.74,7.02-6.94,10.64c-0.64,1.06-0.7,2.47-0.7,2.48
			c-2.84,2.53-5.1,4.48-7.27,6.51c-3.23,3.01-6.27,6.24-9.63,9.11c-8.71,7.44-16.84,15.89-26.5,21.81
			c-12.68,7.77-26.24,14.42-40.1,19.83c-10.95,4.28-22.84,6.33-34.45,8.69c-16.68,3.39-33.64,3.45-50.51,2.07
			c-14.04-1.15-27.78-4.18-41.14-8.87c-19.53-6.87-37.7-16.22-54.11-28.9c-0.26-0.2-0.45-0.59-0.73-0.66
			c-8.63-2.13-10.86-10.81-16.45-16.04c-3.42-3.21-6.96-6.29-10.41-9.47c-2.91-2.68-6.17-5.11-8.54-8.22
			c-2.36-3.1-3.43-7.16-5.73-10.31c-2.3-3.15-5.45-5.68-8.16-8.54c-0.64-0.67-1.41-1.57-1.45-2.4c-0.29-7.07-3.36-12.63-8.13-17.79
			c-1.72-1.86-1.51-5.56-2.06-8.45c-1.68-8.89-7.55-16.28-20.25-13.34c-10.48,2.42-21.04,4.51-31.48,7.07
			c-7.87,1.92-15.62,4.32-23.4,6.57c-10.62,3.06-10.64,12.83-7.24,19.53c1.7,3.35,1.6,6.47,2.29,9.74
			c2.07,9.8,4.56,19.52,7.09,29.22c1.59,6.1,6.41,9.93,12.32,9.98c3.24,0.03,6.36,0.88,6.32,4.31c-0.02,1.71-2.95,4.8-4.6,4.83
			c-10.62,0.17-21.25-0.24-31.86-0.77c-1.22-0.06-2.35-2.07-4.43-4.04c4.65-2.42,8.51-4.26,12.17-6.44c0.99-0.59,2.1-2.4,1.87-3.35
			c-1.55-6.52-3.42-12.97-5.22-19.44c-2.22-7.93-4.1-15.98-6.85-23.72c-1.68-4.73-4.28-9.18-8.65-12.38
			c-8.08-5.92-14.27-13.49-19.95-21.81c-7.51-11-14.26-22.54-24.16-31.94c-13.41-12.74-26.1-26.26-38.79-39.73
			c-6.74-7.15-12.68-15.05-19.28-22.34c-8.63-9.53-17.6-18.73-26.33-28.17c-6.24-6.75-12.24-13.73-18.5-20.47
			c-6.96-7.48-14.2-14.7-21.13-22.22c-11.16-12.11-22.07-24.46-33.28-36.53c-5.41-5.82-11.33-11.16-16.9-16.83
			c-2.98-3.03-4.96-2.45-6.63,1.21c-1.22,2.69-2.85,5.21-3.84,7.98c-1.62,4.53,0.95,8,3.7,11.12c6.94,7.85,14.31,15.32,21,23.37
			c13.57,16.34,25.08,33.98,31.96,54.28c3.01,8.89,6.16,17.74,8.67,26.78c1.38,4.97,1.62,10.26,2.25,15.43
			c2.06,16.79,1.33,33.53-2.01,50.06c-2.49,12.33-4.92,24.8-8.99,36.65c-10.75,31.29-27.65,58.7-53.04,80.59
			c-17.82,15.36-37.82,26.66-60.01,34.01c-17.81,5.9-35.89,10.88-54.98,10.56c-11.5-0.2-23.04,0.46-34.51-0.19
			c-7.4-0.42-14.85-2-22.01-4.01c-9.99-2.8-19.91-6.04-29.51-9.94c-7.91-3.22-15.44-7.46-22.93-11.63
			c-16.96-9.45-31.13-22.34-43.87-36.82c-10.93-12.42-19.5-26.5-27.65-40.82c-2.22-3.9-3.69-8.22-5.69-12.25
			c-1.08-2.19-2.56-4.19-3.6-5.87c-0.83-4.49-1.12-8.95-2.5-13.02c-7.66-22.57-8.72-45.95-7.29-69.31c0.78-12.72,4-25.41,7.23-37.82
			c2.66-10.25,6.04-20.52,10.74-29.96c5.25-10.56,12.18-20.31,18.69-30.22c12.99-19.77,30.79-34.59,50.84-46.49
			c12.16-7.22,25.33-12.81,38.29-18.58c5.98-2.66,12.42-4.61,18.86-5.85c17.86-3.42,35.79-6.74,54.14-5.16
			c5.72,0.49,11.51,2.33,17.09,1.75c11.27-1.18,20.5,5.22,30.91,6.93c2.88,0.47,5.77,0.86,8.65,1.29c0.8,0.12,1.99-0.02,2.33,0.44
			c4.66,6.4,12.74,6.67,18.77,10.59c1.32,0.86,2.69,1.75,4.15,2.28c2.64,0.96,5.12,2.13,6.12-2.45c1.03-4.73,3.31-9.18,4.78-13.83
			c1.54-4.89,2.73-9.89,4.15-14.81c1.01-3.5-0.76-4.93-3.85-5.23c-4.9-0.47-9.82-1.09-14.73-1.1
			c-61.66-0.06-123.32,0.03-184.98-0.14c-3.35-0.01-7.06-1.35-9.97-3.12c-3.98-2.43-3.51-6.29,0.96-8.24
			c3.17-1.38,6.79-2.02,10.27-2.31c4.6-0.38,9.25-0.09,14.03-0.09c0.75-10.51,1.34-20.65,2.23-30.76
			c1.2-13.51,3.42-26.98,3.71-40.49c0.21-10.17,3.62-19.8,3.41-29.97c-0.11-5.47,0.84-11.05,2.01-16.43
			c0.92-4.21,4.11-6.48,8.67-6.38c3.33,0.07,6.75-0.47,9.98,0.12c5.3,0.97,8.17-1.78,10.63-5.68c0.31-0.5,0.75-1.26,0.58-1.66
			c-1.55-3.63,1.59-6.43,1.71-9.47c0.42-10.6,7.23-17.48,13.08-25.07c5.49-7.14,13.6-10.34,21.34-13.6c4-1.68,9.29-1.03,13.86-0.42
			c5.87,0.79,11.6,2.58,17.38,3.98c6.32,1.54,10.55,6,14.65,10.63c7.4,8.33,11.23,18.22,12.96,29.09c0.46,2.87,0.81,5.99,2.23,8.39
			c1.04,1.76,3.66,3.38,5.73,3.59c4.95,0.51,9.98,0.1,14.98,0.16c6.59,0.08,11.14,6.07,10.28,12.68c-0.39,2.99,0.47,6.14,0.74,9.21
			c0.69,8.15,1.25,16.3,2.06,24.44c1.19,11.9,2.96,23.75,3.73,35.67c0.64,9.97,0.05,20.01,0.34,30.01c0.1,3.49,0.45,7.35,2.06,10.29
			c1.5,2.73,10.4,3.38,13.15,1.49c1.28-0.88,1.87-2.8,2.69-4.3c1.42-2.61,3.08-5.15,4.08-7.92c1.87-5.16,3.32-10.47,4.98-15.7
			c2.54-8.02,5.11-16.03,7.64-24.05c4.13-13.09,8.21-26.2,12.37-39.28c1.21-3.81,3-7.47,3.87-11.34c0.82-3.61,1.07-7.42,0.98-11.13
			c-0.04-1.71-1.13-3.8-2.41-4.99c-4.48-4.19-9.35-7.97-13.88-12.11c-1.71-1.56-2.91-3.68-4.29-5.48c2.4-1.63,4.23-2.43,5.45-3.78
			c7.98-8.87,17.8-15.73,26.3-24.03c1.55-1.51,4.26-2.57,6.45-2.6c23.65-0.29,47.31-0.4,70.97-0.39c5.42,0,7.55,2.27,7.42,7.64
			c-0.08,2.94,3.02,5.9-0.76,9c-2.83,2.32-5.29,3.63-9.07,3.59c-19.15-0.2-38.31-0.11-57.47-0.01c-4.65,0.02-12.85,6.59-13.44,10.89
			c-0.18,1.29,1.06,3.41,2.27,4.16c10.94,6.83,14.49,14.67,11.01,26.91c-2.63,9.21-6.15,18.16-9.05,27.3
			c-3.17,10.01-6.18,20.07-9.06,30.16c-1,3.48,1.47,4.15,4.2,4c1.93-0.11,3.84-0.71,5.76-0.7c84.66,0.18,169.31,0.4,253.97,0.62
			c11.77,0.03,14.71-2.93,14.77-14.6C785.04,402.61,785.45,400.55,785.71,398.07z M434.23,550.11c-1.91-1.38-3.47-2.91-5.34-3.8
			c-9.87-4.73-19.51-10.26-29.84-13.68c-10.92-3.62-22.44-6.67-33.85-7.26c-14.05-0.73-28.22-1.3-42.48,1.26
			c-12.86,2.31-25.01,6.44-36.87,11.15c-13.05,5.18-24.97,12.88-36.1,21.69c-11.86,9.39-21.14,21.06-29.95,33.1
			c-4.25,5.81-7.87,12.25-10.73,18.86c-4.5,10.41-8.48,21.09-11.94,31.89c-1.87,5.82-1.82,12.22-3.31,18.18
			c-3.66,14.63-1.58,29.2,0.34,43.67c2.11,15.88,9.11,30.34,14.75,45.18c2.37,6.22,7.96,10.05,10.31,16.5
			c2.01,5.51,6.74,10.2,10.8,14.78c15.06,16.99,32.18,31.27,53.05,40.9c18.44,8.51,37.37,14.5,57.84,14.49
			c5.6,0,11.22-0.47,16.8-1.01c9.42-0.9,19.07-1.01,28.16-3.28c17.17-4.28,33.8-10.39,48.27-21.1c6.08-4.5,12.21-8.97,18-13.83
			c8.81-7.39,17.5-14.96,23.23-25.24c2.34-4.19,4.84-8.3,7.31-12.42c3.09-5.16,6.84-10.03,9.19-15.51c3.82-8.9,7.56-18,9.81-27.38
			c2.37-9.87,2.92-20.17,4.3-30.28c1.07-7.83-0.96-15.51-1.15-23.29c-0.16-6.68-1.21-13.5-3.02-19.94
			c-2.83-10.1-6.08-20.15-10.18-29.79c-3.08-7.25-7.03-14.39-11.9-20.56c-6.28-7.96-13.79-14.97-21.01-22.14
			c-0.74-0.74-3.97-0.46-4.61,0.41c-7.38,9.9-14.47,20.01-21.65,30.05c-5.15,7.21-10.07,14.6-15.55,21.55
			c-5.22,6.62-8.57,14.5-14.81,20.48c-3.52,3.37-5.61,8.18-8.74,12.01c-9.65,11.79-19.35,23.56-29.32,35.08
			c-6.56,7.58-15.77,6.97-24.37,5.83c-5.83-0.77-10.72-13.55-8.28-20.29c1.65-4.58,3.35-9.07,8.66-11.43
			c12.1-5.39,21.17-14.66,29.42-24.79c5.03-6.17,10.43-12.05,15.24-18.38c10.12-13.31,19.29-27.41,30.21-40
			c4.96-5.72,6.59-12.99,11.85-18.38C430.11,560.02,431.64,554.92,434.23,550.11z M896.8,548.63c5.68,7.36,10.71,13.8,15.65,20.3
			c11.78,15.5,23.19,31.29,35.37,46.48c12.48,15.57,25.75,30.5,38.53,45.84c4.95,5.94,10.67,11.13,11.05,20.21
			c0.21,5.05-2.62,6.99-4.49,10.28c-2.27,3.99-5.87,6.27-9.73,6.11c-12.21-0.51-24,1.26-35.82,4.02
			c-11.56,2.7-23.29,4.67-34.95,6.93c-5.67,1.1-11.37,2.05-17.04,3.18c-9.28,1.86-18.55,3.75-27.79,5.75
			c-7.68,1.66-15.32,3.5-22.98,5.24c-4.59,1.04-9.19,2.04-14.38,3.18c1.16,2.41,2.69,4.07,2.53,5.53
			c-0.94,8.39,4.31,14.87,7.56,21.41c12.69,25.54,31.85,45.78,56.07,60.76c9.35,5.78,19.89,9.66,29.97,14.22
			c12.87,5.82,26.61,8.03,40.56,8.91c18.91,1.2,37.46-1.35,55.78-5.95c14.44-3.62,27.38-10.48,40.06-17.98
			c8.75-5.17,15.82-12.52,23.87-18.6c6.09-4.6,10.77-11.17,15.67-17.19c3.73-4.58,6.6-9.85,10.25-14.5
			c3.58-4.56,5.02-10.27,7.34-15.24c5.41-11.59,8.4-24.34,12.03-36.72c0.81-2.76-0.23-6.01,0.31-8.9c0.77-4.1,3.31-8.1,3.18-12.09
			c-0.42-12.86-1.03-25.78-2.89-38.49c-1.35-9.22-4.23-18.34-7.47-27.11c-2.74-7.42-6.89-14.34-10.57-21.4
			c-10.12-19.43-25.26-34.56-42.27-47.82c-12.14-9.47-25.79-16.29-40.47-21.38c-13.4-4.65-27.12-7.96-41.03-8.68
			c-14.39-0.74-28.93,0.95-43.37,2.13c-5.01,0.41-10.06,2.04-14.79,3.89c-8.41,3.27-16.67,6.97-24.83,10.82
			C904.17,543.45,901.02,545.95,896.8,548.63z M773.67,446.34c-1.5-0.13-2.15-0.24-2.79-0.24c-88.44,0.29-176.88,0.58-265.32,0.91
			c-5.17,0.02-8.34,3.44-10.44,7.52c-1.85,3.59-2.77,7.66-4.16,11.49c-2.87,7.89-2.44,15.06,3.78,21.47
			c6.71,6.92,13.15,14.12,19.66,21.23c53.92,58.93,107.82,117.87,161.77,176.77c3.16,3.45,6.61,6.61,10.7,10.67
			c0.64-10.66-2.01-19.46-4.38-28.36c-1.44-5.4-5.21-7.66-9.99-7.67c-4.43-0.01-6.59-2.1-8.4-5.26c2.44-4.49,5.9-6.1,10.82-5.87
			c7.48,0.36,14.99,0.03,22.49,0.13c1.77,0.02,3.67,0.23,5.26,0.94c1.3,0.58,3.03,1.95,3.12,3.09c0.11,1.44-0.87,3.45-2.04,4.41
			c-2.39,1.98-5.21,3.44-7.88,5.08c-2.25,1.38-3.3,2.56-2.32,5.84c2.36,7.93,3.7,16.16,5.68,24.21c0.32,1.28,1.8,2.28,2.74,3.41
			c1.02-1.01,2.6-1.85,2.98-3.07c2.78-8.69,5.41-17.44,7.93-26.22c2.46-8.57,4.74-17.2,7.1-25.8c2.99-10.9,5.96-21.81,8.96-32.71
			c2.68-9.75,5.42-19.48,8.09-29.24c2.57-9.4,4.98-18.84,7.63-28.21c4.39-15.5,8.97-30.95,13.39-46.44
			c4.42-15.48,8.77-30.98,13.06-46.5C772.13,454.22,772.78,450.39,773.67,446.34z M316.82,369.25c-1-0.08-1.99-0.15-2.99-0.23
			c-1.31-3.95-2.94-7.83-3.84-11.87c-0.86-3.87-2.12-6.62-6.72-6.17c-1.49,0.14-3,0.02-4.5,0.03c-5.73,0.04-8.14,2.14-8.75,7.76
			c-0.44,4.05-0.69,8.13-1.12,12.18c-1.27,11.88-3.32,23.73-3.66,35.63c-0.24,8.46-2.85,16.46-3.02,24.81
			c-0.26,12.64-2.84,17.53,13.61,17.06c14.66-0.42,29.33-0.27,43.99-0.26c27.5,0.03,55,0.17,82.49,0.19
			c8.18,0.01,11.12-2.76,10.66-9.86c-0.58-9.14-1.31-18.28-1.97-27.41c-0.02-0.33,0-0.67-0.04-1c-1.32-11.37-2.68-22.73-3.96-34.1
			c-0.74-6.53-1.16-13.1-2.1-19.6c-0.45-3.14-2.37-5.46-6.06-5.41c-2.17,0.03-4.33,0-6.5-0.01c-5.81,0-7.77,2.25-8.36,8.06
			c-0.35,3.49-1.85,6.86-2.88,10.42c-8.54-4.53-10.21-11.07-8.96-19.19c-2.37,0-4.17,0-5.97,0c-16.5,0.01-32.99,0.01-49.49,0.04
			c-2.82,0.01-5.66,0.03-8.47,0.31c-4.22,0.43-6.01,3.48-7.25,7.1C319.67,361.59,318.21,365.41,316.82,369.25z M796.77,467.16
			c-23.83,85.12-47.24,168.8-70.91,253.36c5.65-1.05,10.42-1.86,15.15-2.84c12.15-2.51,24.26-5.24,36.44-7.61
			c10.06-1.96,12.68-4.77,12.52-15.24c-0.1-6.58-1.01-13.17-0.82-19.73c0.21-7.18,1.14-14.34,2-21.48
			c1.78-14.88,5.76-29.15,11.43-43.06c9.47-23.25,22.62-43.89,40.68-61.43c8.98-8.72,9.33-15.69,1.66-25.59
			c-13.84-17.86-27.77-35.66-41.86-53.32C801.79,468.65,799.09,468.24,796.77,467.16z M873.62,562.86
			c-9.26,11.33-18.7,21.26-26.2,32.49c-7.33,10.97-13.37,22.73-17,35.9c-2.33,8.46-5.19,16.78-6.44,25.52
			c-0.5,3.53,0.03,7.31-1,10.63c-2.77,8.88-2.66,17.8-0.73,26.62c0.58,2.65,2.96,5.34,7.41,4.3c10.47-2.47,21.14-4.1,31.67-6.34
			c14.89-3.18,29.73-6.63,44.6-9.91c15.69-3.46,31.39-6.87,48.86-10.68C927.53,634.94,900.95,599.4,873.62,562.86z M358.47,338.96
			c0,0.02,0,0.03,0,0.05c8.98,0,17.97,0.27,26.93-0.19c2.26-0.12,6.15-2.43,6.3-4.01c0.95-9.97,0.86-19.85-7.24-27.7
			c-6.25-6.05-13.65-8.67-22.02-10.62c-20.88-4.87-40.24,14.3-40.52,31.05c-0.12,7.13,3.83,11.33,11.12,11.42
			C341.51,339.04,349.99,338.96,358.47,338.96z"/>
		<path class="st0" d="M141.17,1167.67c6.37,0.53,12.93,0.27,19.08,1.74c13.58,3.25,19.95,12.53,20.57,26.64
			c0.28,6.42-0.32,13.3-2.5,19.25c-1.42,3.86-5.9,7.63-9.9,9.3c-7.8,3.26-16.21,5.03-24.39,7.39c-1.08,0.31-2.23,0.39-3.33,0.66
			c-6.5,1.59-15.76-4.19-15.98-10.61c-0.15-4.58,1.5-9.2,1.57-13.82c0.16-10.97-0.16-21.94-0.24-32.91
			c-0.03-4.49,2.72-7.24,7.09-7.26c2.66-0.01,5.32,0,7.98,0C141.14,1167.92,141.15,1167.79,141.17,1167.67z"/>
		<path class="st0" d="M126,1110.93c0-3.66-0.01-7.32,0-10.98c0.02-5.08,2.82-8.11,7.72-7.97c8.11,0.23,16.14-0.3,24.16,2.72
			c6.46,2.43,10.03,6.27,11.82,12.52c2.62,9.17,0.32,18.71-6.68,23.31c-8.72,5.72-18.7,7.85-29.07,7.31
			c-4.02-0.21-6.47-3.15-6.87-7.16c-0.66-6.55-1.01-13.14-1.5-19.71C125.72,1110.95,125.86,1110.94,126,1110.93z"/>
		<path class="st0" d="M911.77,1165.01c0.59-19.01,1.84-35.83,10.29-50.97c8.26-14.82,22.45-24.84,41.92-21.34
			c11.16,2.01,20.87,5.36,27.79,14.35c5.97,7.76,9.74,16.53,10.23,26.66c0.25,5.22,1.84,10.39,3.01,15.55
			c1.71,7.54,1.63,15.08,0.14,22.59c-1.57,7.95-3.46,15.84-5.08,23.78c-2.45,12-8.19,22.25-18.09,29.29
			c-4.61,3.28-10.88,5.47-16.53,5.78c-9.26,0.52-19.17,2.49-27.73-2.84c-4.43-2.75-9.03-6.33-11.66-10.68
			c-7.47-12.37-11.9-25.97-13.08-40.51C912.62,1172.09,912.04,1167.52,911.77,1165.01z"/>
		<path class="st0" d="M760.52,1095.01c12.58,0.28,24.74,2.16,35.29,9.74c10.45,7.5,15.24,18.45,17.08,30.57
			c1.42,9.37,2.08,18.97,1.93,28.44c-0.18,11.28-2.11,22.09-7.02,32.84c-4.69,10.25-10.33,18.74-19.78,24.55
			c-11.1,6.82-23.45,8.71-36.2,7.71c-4.18-0.33-5.57-4.43-5.69-8.01c-0.19-5.78,0.61-11.58,0.58-17.37
			c-0.17-31.95-0.41-63.9-0.73-95.85c-0.11-10.85,2.93-13.67,12.55-12.63C759.18,1095.07,759.85,1095.01,760.52,1095.01z"/>
		<path class="st0" d="M365.03,432.92c-3.87,0-7.03,0-10.75,0c0-8.93,0-17.81,0-27.06c-9.29,0-18.04,0-27.03,0
			c0-3.65,0-6.92,0-10.75c8.66,0,17.53,0,26.72,0c0-9.13,0-17.73,0-26.71c3.69,0,7.07,0,10.93,0c0,8.48,0,17.21,0,26.38
			c9.17,0,17.9,0,26.86,0c0,3.84,0,7.23,0,10.92c-8.8,0-17.41,0-26.73,0C365.03,414.97,365.03,423.98,365.03,432.92z"/>
	</g>
</g>
</svg>
